<mxfile etag="jblNOTnqUDEaoB6cNHAK" agent="Mozilla/5.0 (Windows NT 10.0; Win64; x64) AppleWebKit/537.36 (KHTML, like Gecko) Chrome/77.0.3865.90 Safari/537.36" modified="2019-12-01T09:47:47.493Z" host="www.draw.io" version="12.3.3" type="github" pages="1">
  <diagram id="e7e014a7-5840-1c2e-5031-d8a46d1fe8dd" name="Page-1">
    <mxGraphModel dx="1408" dy="771" grid="1" gridSize="10" guides="1" tooltips="1" connect="1" arrows="1" fold="1" page="1" pageScale="1" pageWidth="1169" pageHeight="826" background="#ffffff" math="0" shadow="0">
      <root>
        <mxCell id="0"/>
        <mxCell id="1" parent="0"/>
        <mxCell id="3" value="Nurse" style="swimlane;whiteSpace=wrap" parent="1" vertex="1">
          <mxGeometry x="450" y="260" width="310" height="1370" as="geometry"/>
        </mxCell>
        <mxCell id="13" value="" style="ellipse;shape=startState;fillColor=#000000;strokeColor=#ff0000;" parent="3" vertex="1">
          <mxGeometry x="60" y="40" width="30" height="30" as="geometry"/>
        </mxCell>
        <mxCell id="14" value="" style="edgeStyle=elbowEdgeStyle;elbow=horizontal;verticalAlign=bottom;endArrow=open;endSize=8;strokeColor=#000000;endFill=1;rounded=0" parent="3" source="13" target="15" edge="1">
          <mxGeometry x="40" y="20" as="geometry">
            <mxPoint x="55" y="90" as="targetPoint"/>
          </mxGeometry>
        </mxCell>
        <mxCell id="zlGqNMjBUAv9cToeVqkP-49" style="edgeStyle=orthogonalEdgeStyle;rounded=0;orthogonalLoop=1;jettySize=auto;html=1;exitX=0.5;exitY=1;exitDx=0;exitDy=0;entryX=0.5;entryY=0;entryDx=0;entryDy=0;" parent="3" source="15" target="zlGqNMjBUAv9cToeVqkP-44" edge="1">
          <mxGeometry relative="1" as="geometry"/>
        </mxCell>
        <mxCell id="15" value="Assess Patient" style="" parent="3" vertex="1">
          <mxGeometry x="20" y="110" width="110" height="30" as="geometry"/>
        </mxCell>
        <mxCell id="zlGqNMjBUAv9cToeVqkP-264" style="edgeStyle=orthogonalEdgeStyle;rounded=0;orthogonalLoop=1;jettySize=auto;html=1;exitX=0.5;exitY=1;exitDx=0;exitDy=0;entryX=0.75;entryY=0;entryDx=0;entryDy=0;" parent="3" source="zlGqNMjBUAv9cToeVqkP-44" target="zlGqNMjBUAv9cToeVqkP-45" edge="1">
          <mxGeometry relative="1" as="geometry"/>
        </mxCell>
        <mxCell id="zlGqNMjBUAv9cToeVqkP-44" value="Register Patient" style="" parent="3" vertex="1">
          <mxGeometry x="20" y="162" width="110" height="30" as="geometry"/>
        </mxCell>
        <mxCell id="zlGqNMjBUAv9cToeVqkP-47" style="edgeStyle=orthogonalEdgeStyle;rounded=1;orthogonalLoop=1;jettySize=auto;html=1;entryX=1;entryY=0.25;entryDx=0;entryDy=0;" parent="3" source="zlGqNMjBUAv9cToeVqkP-45" target="zlGqNMjBUAv9cToeVqkP-46" edge="1">
          <mxGeometry relative="1" as="geometry"/>
        </mxCell>
        <mxCell id="zlGqNMjBUAv9cToeVqkP-45" value="allocate room" style="" parent="3" vertex="1">
          <mxGeometry x="20" y="214" width="110" height="30" as="geometry"/>
        </mxCell>
        <mxCell id="2" value="Physician" style="swimlane;whiteSpace=wrap" parent="3" vertex="1">
          <mxGeometry x="-300" width="300" height="1370" as="geometry"/>
        </mxCell>
        <mxCell id="5" value="" style="ellipse;shape=startState;fillColor=#000000;strokeColor=#ff0000;" parent="2" vertex="1">
          <mxGeometry x="100" y="40" width="30" height="30" as="geometry"/>
        </mxCell>
        <mxCell id="6" value="" style="edgeStyle=elbowEdgeStyle;elbow=horizontal;verticalAlign=bottom;endArrow=open;endSize=8;strokeColor=#000000;endFill=1;rounded=0" parent="2" source="5" edge="1">
          <mxGeometry x="100" y="40" as="geometry">
            <mxPoint x="235.5" y="282" as="targetPoint"/>
          </mxGeometry>
        </mxCell>
        <mxCell id="zlGqNMjBUAv9cToeVqkP-252" style="edgeStyle=orthogonalEdgeStyle;rounded=0;orthogonalLoop=1;jettySize=auto;html=1;exitX=0.5;exitY=1;exitDx=0;exitDy=0;" parent="2" source="zlGqNMjBUAv9cToeVqkP-46" target="zlGqNMjBUAv9cToeVqkP-50" edge="1">
          <mxGeometry relative="1" as="geometry"/>
        </mxCell>
        <mxCell id="zlGqNMjBUAv9cToeVqkP-46" value="Meet Patient" style="rounded=0;whiteSpace=wrap;html=1;" parent="2" vertex="1">
          <mxGeometry x="242.5" y="266" width="120" height="60" as="geometry"/>
        </mxCell>
        <mxCell id="zlGqNMjBUAv9cToeVqkP-253" style="edgeStyle=orthogonalEdgeStyle;rounded=0;orthogonalLoop=1;jettySize=auto;html=1;exitX=0.25;exitY=0.5;exitDx=0;exitDy=0;exitPerimeter=0;entryX=0.373;entryY=0.107;entryDx=0;entryDy=0;entryPerimeter=0;" parent="2" source="zlGqNMjBUAv9cToeVqkP-50" target="zlGqNMjBUAv9cToeVqkP-56" edge="1">
          <mxGeometry relative="1" as="geometry"/>
        </mxCell>
        <mxCell id="zlGqNMjBUAv9cToeVqkP-50" value="" style="shape=line;html=1;strokeWidth=6;strokeColor=#ff0000;" parent="2" vertex="1">
          <mxGeometry x="95.5" y="362" width="200" height="10" as="geometry"/>
        </mxCell>
        <mxCell id="zlGqNMjBUAv9cToeVqkP-265" style="edgeStyle=orthogonalEdgeStyle;rounded=0;orthogonalLoop=1;jettySize=auto;html=1;exitX=0.5;exitY=1;exitDx=0;exitDy=0;entryX=0.5;entryY=0;entryDx=0;entryDy=0;" parent="2" source="zlGqNMjBUAv9cToeVqkP-56" target="zlGqNMjBUAv9cToeVqkP-57" edge="1">
          <mxGeometry relative="1" as="geometry"/>
        </mxCell>
        <mxCell id="zlGqNMjBUAv9cToeVqkP-56" value="access patient" style="html=1;" parent="2" vertex="1">
          <mxGeometry x="130" y="392" width="110" height="28" as="geometry"/>
        </mxCell>
        <mxCell id="zlGqNMjBUAv9cToeVqkP-266" style="edgeStyle=orthogonalEdgeStyle;rounded=0;orthogonalLoop=1;jettySize=auto;html=1;exitX=0.25;exitY=1;exitDx=0;exitDy=0;entryX=0.5;entryY=0;entryDx=0;entryDy=0;" parent="2" source="zlGqNMjBUAv9cToeVqkP-57" target="zlGqNMjBUAv9cToeVqkP-58" edge="1">
          <mxGeometry relative="1" as="geometry"/>
        </mxCell>
        <mxCell id="zlGqNMjBUAv9cToeVqkP-57" value="plan actions" style="html=1;" parent="2" vertex="1">
          <mxGeometry x="130" y="442" width="110" height="28" as="geometry"/>
        </mxCell>
        <mxCell id="zlGqNMjBUAv9cToeVqkP-256" style="edgeStyle=orthogonalEdgeStyle;rounded=0;orthogonalLoop=1;jettySize=auto;html=1;exitX=0.5;exitY=1;exitDx=0;exitDy=0;entryX=0.4;entryY=0;entryDx=0;entryDy=0;entryPerimeter=0;" parent="2" source="zlGqNMjBUAv9cToeVqkP-58" target="zlGqNMjBUAv9cToeVqkP-64" edge="1">
          <mxGeometry relative="1" as="geometry"/>
        </mxCell>
        <mxCell id="zlGqNMjBUAv9cToeVqkP-58" value="assign delegate actions" style="html=1;" parent="2" vertex="1">
          <mxGeometry x="116" y="492" width="138" height="28" as="geometry"/>
        </mxCell>
        <mxCell id="zlGqNMjBUAv9cToeVqkP-267" style="edgeStyle=orthogonalEdgeStyle;rounded=0;orthogonalLoop=1;jettySize=auto;html=1;exitX=0.75;exitY=0.5;exitDx=0;exitDy=0;exitPerimeter=0;entryX=0.803;entryY=0.8;entryDx=0;entryDy=0;entryPerimeter=0;" parent="2" source="zlGqNMjBUAv9cToeVqkP-64" target="zlGqNMjBUAv9cToeVqkP-68" edge="1">
          <mxGeometry relative="1" as="geometry"/>
        </mxCell>
        <mxCell id="zlGqNMjBUAv9cToeVqkP-64" value="" style="shape=line;html=1;strokeWidth=6;strokeColor=#ff0000;" parent="2" vertex="1">
          <mxGeometry x="100" y="540" width="200" height="10" as="geometry"/>
        </mxCell>
        <mxCell id="zlGqNMjBUAv9cToeVqkP-268" style="edgeStyle=orthogonalEdgeStyle;rounded=0;orthogonalLoop=1;jettySize=auto;html=1;exitX=0.25;exitY=0.5;exitDx=0;exitDy=0;exitPerimeter=0;entryX=0.5;entryY=0;entryDx=0;entryDy=0;" parent="2" source="zlGqNMjBUAv9cToeVqkP-68" target="zlGqNMjBUAv9cToeVqkP-149" edge="1">
          <mxGeometry relative="1" as="geometry">
            <Array as="points">
              <mxPoint x="146" y="600"/>
              <mxPoint x="76" y="600"/>
              <mxPoint x="76" y="590"/>
              <mxPoint x="66" y="590"/>
            </Array>
          </mxGeometry>
        </mxCell>
        <mxCell id="zlGqNMjBUAv9cToeVqkP-68" value="" style="shape=line;html=1;strokeWidth=6;strokeColor=#ff0000;" parent="2" vertex="1">
          <mxGeometry x="95.5" y="580" width="200" height="10" as="geometry"/>
        </mxCell>
        <mxCell id="zlGqNMjBUAv9cToeVqkP-149" value="Actions" style="rhombus;whiteSpace=wrap;html=1;fillColor=#ffffc0;strokeColor=#ff0000;" parent="2" vertex="1">
          <mxGeometry x="26" y="610" width="80" height="40" as="geometry"/>
        </mxCell>
        <mxCell id="zlGqNMjBUAv9cToeVqkP-150" value="no" style="edgeStyle=orthogonalEdgeStyle;html=1;align=left;verticalAlign=bottom;endArrow=open;endSize=8;strokeColor=#ff0000;entryX=1;entryY=0;entryDx=0;entryDy=0;" parent="2" source="zlGqNMjBUAv9cToeVqkP-149" target="zlGqNMjBUAv9cToeVqkP-153" edge="1">
          <mxGeometry x="-1" relative="1" as="geometry">
            <mxPoint x="176" y="870" as="targetPoint"/>
            <Array as="points">
              <mxPoint x="156" y="630"/>
              <mxPoint x="156" y="820"/>
              <mxPoint x="180" y="820"/>
              <mxPoint x="180" y="870"/>
              <mxPoint x="77" y="870"/>
            </Array>
          </mxGeometry>
        </mxCell>
        <mxCell id="zlGqNMjBUAv9cToeVqkP-151" value="yes" style="edgeStyle=orthogonalEdgeStyle;html=1;align=left;verticalAlign=top;endArrow=open;endSize=8;strokeColor=#ff0000;" parent="2" source="zlGqNMjBUAv9cToeVqkP-149" edge="1">
          <mxGeometry x="-1" relative="1" as="geometry">
            <mxPoint x="66" y="710" as="targetPoint"/>
          </mxGeometry>
        </mxCell>
        <mxCell id="zlGqNMjBUAv9cToeVqkP-155" style="edgeStyle=orthogonalEdgeStyle;rounded=0;orthogonalLoop=1;jettySize=auto;html=1;entryX=0.5;entryY=0;entryDx=0;entryDy=0;strokeColor=#000000;" parent="2" source="zlGqNMjBUAv9cToeVqkP-152" target="zlGqNMjBUAv9cToeVqkP-153" edge="1">
          <mxGeometry relative="1" as="geometry"/>
        </mxCell>
        <mxCell id="zlGqNMjBUAv9cToeVqkP-152" value="perform action" style="html=1;strokeColor=#000000;" parent="2" vertex="1">
          <mxGeometry x="20" y="716" width="110" height="50" as="geometry"/>
        </mxCell>
        <mxCell id="zlGqNMjBUAv9cToeVqkP-248" style="edgeStyle=orthogonalEdgeStyle;rounded=0;orthogonalLoop=1;jettySize=auto;html=1;entryX=0.523;entryY=0.2;entryDx=0;entryDy=0;entryPerimeter=0;strokeColor=#FF3333;" parent="2" source="zlGqNMjBUAv9cToeVqkP-153" target="zlGqNMjBUAv9cToeVqkP-230" edge="1">
          <mxGeometry relative="1" as="geometry"/>
        </mxCell>
        <mxCell id="mDBJDxcuhPN3E0ocwuf3-15" style="edgeStyle=orthogonalEdgeStyle;rounded=0;orthogonalLoop=1;jettySize=auto;html=1;entryX=0;entryY=0.5;entryDx=0;entryDy=0;dashed=1;" parent="2" source="zlGqNMjBUAv9cToeVqkP-156" target="zlGqNMjBUAv9cToeVqkP-149" edge="1">
          <mxGeometry relative="1" as="geometry">
            <Array as="points">
              <mxPoint x="10" y="630"/>
            </Array>
          </mxGeometry>
        </mxCell>
        <mxCell id="zlGqNMjBUAv9cToeVqkP-153" value="" style="rhombus;whiteSpace=wrap;html=1;fillColor=#fff2cc;strokeColor=#FF0000;" parent="2" vertex="1">
          <mxGeometry x="43.5" y="832" width="45" height="40" as="geometry"/>
        </mxCell>
        <mxCell id="zlGqNMjBUAv9cToeVqkP-230" value="" style="shape=line;html=1;strokeWidth=6;strokeColor=#ff0000;" parent="2" vertex="1">
          <mxGeometry x="26" y="1000" width="260" height="10" as="geometry"/>
        </mxCell>
        <mxCell id="zlGqNMjBUAv9cToeVqkP-231" value="" style="edgeStyle=orthogonalEdgeStyle;html=1;verticalAlign=bottom;endArrow=open;endSize=8;strokeColor=#ff0000;" parent="2" source="zlGqNMjBUAv9cToeVqkP-230" edge="1">
          <mxGeometry relative="1" as="geometry">
            <mxPoint x="155" y="1080" as="targetPoint"/>
          </mxGeometry>
        </mxCell>
        <mxCell id="zlGqNMjBUAv9cToeVqkP-247" style="edgeStyle=orthogonalEdgeStyle;rounded=0;orthogonalLoop=1;jettySize=auto;html=1;exitX=0.5;exitY=1;exitDx=0;exitDy=0;entryX=0.5;entryY=0;entryDx=0;entryDy=0;" parent="2" source="zlGqNMjBUAv9cToeVqkP-245" target="zlGqNMjBUAv9cToeVqkP-246" edge="1">
          <mxGeometry relative="1" as="geometry"/>
        </mxCell>
        <mxCell id="zlGqNMjBUAv9cToeVqkP-245" value="Meet Patient" style="html=1;strokeColor=#000000;" parent="2" vertex="1">
          <mxGeometry x="95.5" y="1080" width="110" height="30" as="geometry"/>
        </mxCell>
        <mxCell id="zlGqNMjBUAv9cToeVqkP-271" style="edgeStyle=orthogonalEdgeStyle;rounded=0;orthogonalLoop=1;jettySize=auto;html=1;entryX=0.5;entryY=0;entryDx=0;entryDy=0;" parent="2" source="zlGqNMjBUAv9cToeVqkP-246" target="zlGqNMjBUAv9cToeVqkP-270" edge="1">
          <mxGeometry relative="1" as="geometry"/>
        </mxCell>
        <mxCell id="zlGqNMjBUAv9cToeVqkP-246" value="Inform patient &lt;br&gt;of overall health" style="html=1;strokeColor=#000000;" parent="2" vertex="1">
          <mxGeometry x="96" y="1140" width="110" height="40" as="geometry"/>
        </mxCell>
        <mxCell id="zlGqNMjBUAv9cToeVqkP-270" value="" style="ellipse;html=1;shape=endState;fillColor=#000000;strokeColor=#ff0000;" parent="2" vertex="1">
          <mxGeometry x="130" y="1310" width="30" height="30" as="geometry"/>
        </mxCell>
        <mxCell id="zlGqNMjBUAv9cToeVqkP-156" value="" style="shape=mxgraph.bpmn.loop;html=1;outlineConnect=0;strokeColor=#000000;" parent="2" vertex="1">
          <mxGeometry y="780" width="34" height="32" as="geometry"/>
        </mxCell>
        <mxCell id="zlGqNMjBUAv9cToeVqkP-260" style="edgeStyle=orthogonalEdgeStyle;rounded=0;orthogonalLoop=1;jettySize=auto;html=1;exitX=0.75;exitY=0.5;exitDx=0;exitDy=0;exitPerimeter=0;entryX=0.671;entryY=-0.071;entryDx=0;entryDy=0;entryPerimeter=0;" parent="3" source="zlGqNMjBUAv9cToeVqkP-52" target="zlGqNMjBUAv9cToeVqkP-59" edge="1">
          <mxGeometry relative="1" as="geometry"/>
        </mxCell>
        <mxCell id="zlGqNMjBUAv9cToeVqkP-52" value="" style="shape=line;html=1;strokeWidth=6;strokeColor=#ff0000;" parent="3" vertex="1">
          <mxGeometry x="-10" y="361" width="200" height="10" as="geometry"/>
        </mxCell>
        <mxCell id="zlGqNMjBUAv9cToeVqkP-258" style="edgeStyle=orthogonalEdgeStyle;rounded=0;orthogonalLoop=1;jettySize=auto;html=1;exitX=0.5;exitY=1;exitDx=0;exitDy=0;entryX=0.5;entryY=0;entryDx=0;entryDy=0;" parent="3" source="zlGqNMjBUAv9cToeVqkP-59" target="zlGqNMjBUAv9cToeVqkP-60" edge="1">
          <mxGeometry relative="1" as="geometry"/>
        </mxCell>
        <mxCell id="zlGqNMjBUAv9cToeVqkP-59" value="document action plan" style="html=1;" parent="3" vertex="1">
          <mxGeometry x="36" y="392" width="155" height="28" as="geometry"/>
        </mxCell>
        <mxCell id="zlGqNMjBUAv9cToeVqkP-257" style="edgeStyle=orthogonalEdgeStyle;rounded=0;orthogonalLoop=1;jettySize=auto;html=1;exitX=0.5;exitY=1;exitDx=0;exitDy=0;" parent="3" source="zlGqNMjBUAv9cToeVqkP-60" target="zlGqNMjBUAv9cToeVqkP-65" edge="1">
          <mxGeometry relative="1" as="geometry"/>
        </mxCell>
        <mxCell id="zlGqNMjBUAv9cToeVqkP-60" value="document who&lt;br&gt;actions are&amp;nbsp;&lt;br&gt;assigned to" style="html=1;" parent="3" vertex="1">
          <mxGeometry x="36" y="440" width="155" height="60" as="geometry"/>
        </mxCell>
        <mxCell id="zlGqNMjBUAv9cToeVqkP-65" value="" style="shape=line;html=1;strokeWidth=6;strokeColor=#ff0000;" parent="3" vertex="1">
          <mxGeometry x="2.5" y="540" width="200" height="10" as="geometry"/>
        </mxCell>
        <mxCell id="zlGqNMjBUAv9cToeVqkP-269" style="edgeStyle=orthogonalEdgeStyle;rounded=0;orthogonalLoop=1;jettySize=auto;html=1;exitX=0.75;exitY=0.5;exitDx=0;exitDy=0;exitPerimeter=0;entryX=0.5;entryY=0;entryDx=0;entryDy=0;" parent="3" source="zlGqNMjBUAv9cToeVqkP-69" target="zlGqNMjBUAv9cToeVqkP-71" edge="1">
          <mxGeometry relative="1" as="geometry"/>
        </mxCell>
        <mxCell id="zlGqNMjBUAv9cToeVqkP-69" value="" style="shape=line;html=1;strokeWidth=6;strokeColor=#ff0000;" parent="3" vertex="1">
          <mxGeometry x="-10" y="580" width="210" height="10" as="geometry"/>
        </mxCell>
        <mxCell id="zlGqNMjBUAv9cToeVqkP-71" value="Actions" style="rhombus;whiteSpace=wrap;html=1;fillColor=#ffffc0;strokeColor=#ff0000;" parent="3" vertex="1">
          <mxGeometry x="71.5" y="620" width="80" height="40" as="geometry"/>
        </mxCell>
        <mxCell id="zlGqNMjBUAv9cToeVqkP-72" value="no" style="edgeStyle=orthogonalEdgeStyle;html=1;align=left;verticalAlign=bottom;endArrow=open;endSize=8;strokeColor=#ff0000;entryX=1;entryY=0.5;entryDx=0;entryDy=0;" parent="3" source="zlGqNMjBUAv9cToeVqkP-71" target="zlGqNMjBUAv9cToeVqkP-104" edge="1">
          <mxGeometry x="-1" relative="1" as="geometry">
            <mxPoint x="152" y="910" as="targetPoint"/>
            <Array as="points">
              <mxPoint x="224" y="640"/>
              <mxPoint x="224" y="910"/>
            </Array>
          </mxGeometry>
        </mxCell>
        <mxCell id="zlGqNMjBUAv9cToeVqkP-73" value="yes" style="edgeStyle=orthogonalEdgeStyle;html=1;align=left;verticalAlign=top;endArrow=open;endSize=8;strokeColor=#ff0000;" parent="3" source="zlGqNMjBUAv9cToeVqkP-71" edge="1">
          <mxGeometry x="-1" relative="1" as="geometry">
            <mxPoint x="111.5" y="720" as="targetPoint"/>
          </mxGeometry>
        </mxCell>
        <mxCell id="zlGqNMjBUAv9cToeVqkP-92" value="perform action" style="html=1;" parent="3" vertex="1">
          <mxGeometry x="56.5" y="723" width="110" height="50" as="geometry"/>
        </mxCell>
        <mxCell id="zlGqNMjBUAv9cToeVqkP-105" style="edgeStyle=orthogonalEdgeStyle;rounded=0;orthogonalLoop=1;jettySize=auto;html=1;strokeColor=#000000;" parent="3" target="zlGqNMjBUAv9cToeVqkP-104" edge="1">
          <mxGeometry relative="1" as="geometry">
            <mxPoint x="112" y="770" as="sourcePoint"/>
          </mxGeometry>
        </mxCell>
        <mxCell id="zlGqNMjBUAv9cToeVqkP-249" style="edgeStyle=orthogonalEdgeStyle;rounded=0;orthogonalLoop=1;jettySize=auto;html=1;strokeColor=#FF3333;" parent="3" source="zlGqNMjBUAv9cToeVqkP-104" target="zlGqNMjBUAv9cToeVqkP-243" edge="1">
          <mxGeometry relative="1" as="geometry"/>
        </mxCell>
        <mxCell id="mDBJDxcuhPN3E0ocwuf3-18" style="edgeStyle=orthogonalEdgeStyle;rounded=0;orthogonalLoop=1;jettySize=auto;html=1;dashed=1;" parent="3" source="zlGqNMjBUAv9cToeVqkP-104" target="zlGqNMjBUAv9cToeVqkP-229" edge="1">
          <mxGeometry relative="1" as="geometry"/>
        </mxCell>
        <mxCell id="zlGqNMjBUAv9cToeVqkP-104" value="" style="rhombus;whiteSpace=wrap;html=1;fillColor=#fff2cc;strokeColor=#FF0000;" parent="3" vertex="1">
          <mxGeometry x="95" y="890" width="45" height="40" as="geometry"/>
        </mxCell>
        <mxCell id="zlGqNMjBUAv9cToeVqkP-229" value="" style="shape=mxgraph.bpmn.loop;html=1;outlineConnect=0;strokeColor=#000000;" parent="3" vertex="1">
          <mxGeometry x="2.5" y="778" width="40" height="34" as="geometry"/>
        </mxCell>
        <mxCell id="zlGqNMjBUAv9cToeVqkP-243" value="" style="shape=line;html=1;strokeWidth=6;strokeColor=#ff0000;" parent="3" vertex="1">
          <mxGeometry x="-28" y="1000" width="319" height="10" as="geometry"/>
        </mxCell>
        <mxCell id="mDBJDxcuhPN3E0ocwuf3-17" style="edgeStyle=orthogonalEdgeStyle;rounded=0;orthogonalLoop=1;jettySize=auto;html=1;dashed=1;" parent="1" source="zlGqNMjBUAv9cToeVqkP-153" edge="1">
          <mxGeometry relative="1" as="geometry">
            <mxPoint x="160" y="1080" as="targetPoint"/>
          </mxGeometry>
        </mxCell>
        <mxCell id="mDBJDxcuhPN3E0ocwuf3-19" style="edgeStyle=orthogonalEdgeStyle;rounded=0;orthogonalLoop=1;jettySize=auto;html=1;dashed=1;" parent="1" source="zlGqNMjBUAv9cToeVqkP-229" edge="1">
          <mxGeometry relative="1" as="geometry">
            <mxPoint x="520" y="900" as="targetPoint"/>
            <Array as="points">
              <mxPoint x="473" y="900"/>
            </Array>
          </mxGeometry>
        </mxCell>
      </root>
    </mxGraphModel>
  </diagram>
</mxfile>
